<?xml version="1.0" standalone="no"?><!DOCTYPE svg PUBLIC "-//W3C//DTD SVG 1.1//EN" "http://www.w3.org/Graphics/SVG/1.1/DTD/svg11.dtd"><svg t="1643277759827" class="icon" viewBox="0 0 1024 1024" version="1.1" xmlns="http://www.w3.org/2000/svg" p-id="22414" xmlns:xlink="http://www.w3.org/1999/xlink" width="500" height="500"><defs><style type="text/css"></style></defs><path d="M613.546667 774.4512l24.6784 69.563733a63.829333 63.829333 0 0 0 94.651733 32.426667A408.541867 408.541867 0 0 0 921.6 531.899733C921.6 306.005333 738.2016 122.88 512 122.88S102.4 306.005333 102.4 531.899733c0 126.737067 58.129067 243.950933 155.7504 321.058134 5.3248 4.1984 11.605333 8.704 18.807467 13.5168a76.356267 76.356267 0 0 0 114.346666-37.9904l119.466667-336.554667 42.564267 131.413333a28.194133 28.194133 0 1 0 53.6576-17.339733l-50.688-156.501333a47.445333 47.445333 0 0 0-89.873067-1.262934L338.158933 809.642667a19.968 19.968 0 0 1-29.9008 9.898666 238.318933 238.318933 0 0 1-15.1552-10.8544 351.709867 351.709867 0 0 1-134.314666-276.7872C158.788267 337.169067 316.928 179.268267 512 179.268267c195.072 0 353.211733 157.9008 353.211733 352.631466 0 121.617067-62.122667 232.584533-162.747733 297.0624a7.509333 7.509333 0 0 1-10.3424-2.286933l-0.750933-1.501867-24.712534-69.597866a29.4912 29.4912 0 0 1 6.007467-29.730134l3.3792-3.1744a250.743467 250.743467 0 0 0 87.722667-190.7712c0-138.8544-112.708267-251.426133-251.767467-251.426133s-251.767467 112.571733-251.767467 251.426133c0 43.690667 11.1616 85.777067 32.1536 123.050667a28.194133 28.194133 0 1 0 49.152-27.648 193.774933 193.774933 0 0 1-24.917333-95.402667A195.242667 195.242667 0 0 1 512 336.896a195.242667 195.242667 0 0 1 195.3792 195.037867 194.389333 194.389333 0 0 1-68.061867 148.002133l0.580267-0.512a86.016 86.016 0 0 0-26.350933 95.061333z" fill="#099DFD" p-id="22415"></path></svg>